<svg width="45.191mm" height="46.745mm" version="1.1" viewBox="0 0 45.19117 46.744526" xmlns="http://www.w3.org/2000/svg">
 <g transform="translate(-7.6425 -9.0444)">
  <g transform="translate(-123.33 -21.814)">
   <g transform="translate(69.926 -54.618)">
    <g transform="translate(23.653 55.993)">
     <g>
      <ellipse cx="66.477" cy="39.187" rx="2.8888" ry="3.5685" fill="#f7f01b" style="paint-order:normal"/>
      <path d="m60.267 35.232c3.7723 3.63 3.2441 9.7376 3.1461 13.717" fill="#f7a91b" stroke="#f3e679" stroke-width=".26458px"/>
      <ellipse cx="59.457" cy="33.335" rx="3.1183" ry="3.852" fill="#f7f01b" style="paint-order:normal"/>
      <path d="m66.184 41.355c-6.256 2.9098-4.5567 9.6945-4.1427 12.829" fill="#f7a91b" stroke="#f3e679" stroke-width=".26458px"/>
      <ellipse cx="66.16" cy="40.305" rx="2.1447" ry="2.6493" fill="#ffc813" style="paint-order:normal"/>
     </g>
     <path d="m65.816 42.694c-2.7071 3.1006-2.6028 7.3969-3.7751 11.49" fill="#f0ff69" fill-opacity=".97934"/>
     <g>
      <path d="m58.7 46.433c4.0614 1.9182 2.829 5.5756 3.3409 7.7508" fill="#f7a91b" stroke="#f3e679" stroke-width=".26458px"/>
      <g>
       <ellipse cx="58.162" cy="44.479" rx="2.9833" ry="3.2296" fill="#f7f01b" style="paint-order:normal"/>
       <ellipse cx="58.531" cy="45.582" rx="2.0537" ry="1.8647" fill="#ffc813" style="paint-order:normal"/>
       <g stroke="#faec72" stroke-linecap="round" stroke-linejoin="round">
        <ellipse cx="60.165" cy="34.823" rx="2.0839" ry="2.5742" fill="#ffc813" stroke-width=".02384" style="paint-order:normal"/>
        <g stroke-width=".011521">
         <ellipse cx="65.39" cy="33.888" rx="1.007" ry="1.244" fill="#ecb426" style="paint-order:normal"/>
         <ellipse cx="57.907" cy="39.233" rx="1.007" ry="1.244" fill="#fcb616" style="paint-order:normal"/>
         <ellipse cx="54.031" cy="41.572" rx="1.007" ry="1.244" fill="#f7881b" style="paint-order:normal"/>
         <ellipse cx="55.1" cy="37.095" rx="1.007" ry="1.244" fill="#ecb426" style="paint-order:normal"/>
         <ellipse cx="69.132" cy="34.422" rx="1.007" ry="1.244" fill="#fcb616" style="paint-order:normal"/>
        </g>
       </g>
       <ellipse cx="63.465" cy="31.487" rx=".81947" ry="1.0123" fill="#fcb616" style="paint-order:normal"/>
       <ellipse cx="66.477" cy="39.187" rx="2.8888" ry="3.5685" fill="#f7f01b" style="paint-order:normal"/>
      </g>
      <path d="m60.267 35.232c3.7723 3.63 3.2441 9.7376 3.1461 13.717" fill="#f7a91b" stroke="#f3e679" stroke-width=".26458px"/>
      <ellipse cx="59.457" cy="33.335" rx="3.1183" ry="3.852" fill="#f7f01b" style="paint-order:normal"/>
      <path d="m66.184 41.355c-6.256 2.9098-4.5567 9.6945-4.1427 12.829" fill="#f7a91b" stroke="#f3e679" stroke-width=".26458px"/>
      <ellipse cx="66.16" cy="40.305" rx="2.1447" ry="2.6493" fill="#ffc813" style="paint-order:normal"/>
     </g>
     <path d="m65.816 42.694c-2.7071 3.1006-2.6028 7.3969-3.7751 11.49" fill="#f0ff69" fill-opacity=".97934"/>
     <g>
      <path d="m58.7 46.433c4.0614 1.9182 2.829 5.5756 3.3409 7.7508" fill="#f7a91b" stroke="#f3e679" stroke-width=".26458px"/>
      <g>
       <ellipse cx="58.162" cy="44.479" rx="2.9833" ry="3.2296" fill="#f7f01b" style="paint-order:normal"/>
       <ellipse cx="58.531" cy="45.582" rx="2.0537" ry="1.8647" fill="#ffc813" style="paint-order:normal"/>
       <g stroke="#faec72" stroke-linecap="round" stroke-linejoin="round">
        <ellipse cx="60.165" cy="34.823" rx="2.0839" ry="2.5742" fill="#ffc813" stroke-width=".02384" style="paint-order:normal"/>
        <g stroke-width=".011521">
         <ellipse cx="65.39" cy="33.888" rx="1.007" ry="1.244" fill="#ecb426" style="paint-order:normal"/>
         <ellipse cx="57.907" cy="39.233" rx="1.007" ry="1.244" fill="#fcb616" style="paint-order:normal"/>
         <ellipse cx="54.031" cy="41.572" rx="1.007" ry="1.244" fill="#f7881b" style="paint-order:normal"/>
         <ellipse cx="55.1" cy="37.095" rx="1.007" ry="1.244" fill="#ecb426" style="paint-order:normal"/>
         <ellipse cx="69.132" cy="34.422" rx="1.007" ry="1.244" fill="#fcb616" style="paint-order:normal"/>
        </g>
       </g>
       <ellipse cx="63.465" cy="31.487" rx=".81947" ry="1.0123" fill="#fcb616" style="paint-order:normal"/>
      </g>
     </g>
    </g>
    <g transform="rotate(47.774 10.652 108.88)">
     <g>
      <ellipse cx="66.477" cy="39.187" rx="2.8888" ry="3.5685" fill="#f7f01b" style="paint-order:normal"/>
      <path d="m60.267 35.232c3.7723 3.63 3.2441 9.7376 3.1461 13.717" fill="#f7a91b" stroke="#f3e679" stroke-width=".26458px"/>
      <ellipse cx="59.457" cy="33.335" rx="3.1183" ry="3.852" fill="#f7f01b" style="paint-order:normal"/>
      <path d="m66.184 41.355c-6.256 2.9098-4.5567 9.6945-4.1427 12.829" fill="#f7a91b" stroke="#f3e679" stroke-width=".26458px"/>
      <ellipse cx="66.16" cy="40.305" rx="2.1447" ry="2.6493" fill="#ffc813" style="paint-order:normal"/>
     </g>
     <path d="m65.816 42.694c-2.7071 3.1006-2.6028 7.3969-3.7751 11.49" fill="#f0ff69" fill-opacity=".97934"/>
     <g>
      <path d="m58.7 46.433c4.0614 1.9182 2.829 5.5756 3.3409 7.7508" fill="#f7a91b" stroke="#f3e679" stroke-width=".26458px"/>
      <g>
       <ellipse cx="58.162" cy="44.479" rx="2.9833" ry="3.2296" fill="#f7f01b" style="paint-order:normal"/>
       <ellipse cx="58.531" cy="45.582" rx="2.0537" ry="1.8647" fill="#ffc813" style="paint-order:normal"/>
       <g stroke="#faec72" stroke-linecap="round" stroke-linejoin="round">
        <ellipse cx="60.165" cy="34.823" rx="2.0839" ry="2.5742" fill="#ffc813" stroke-width=".02384" style="paint-order:normal"/>
        <g stroke-width=".011521">
         <ellipse cx="65.39" cy="33.888" rx="1.007" ry="1.244" fill="#ecb426" style="paint-order:normal"/>
         <ellipse cx="57.907" cy="39.233" rx="1.007" ry="1.244" fill="#fcb616" style="paint-order:normal"/>
         <ellipse cx="54.031" cy="41.572" rx="1.007" ry="1.244" fill="#f7881b" style="paint-order:normal"/>
         <ellipse cx="55.1" cy="37.095" rx="1.007" ry="1.244" fill="#ecb426" style="paint-order:normal"/>
         <ellipse cx="69.132" cy="34.422" rx="1.007" ry="1.244" fill="#fcb616" style="paint-order:normal"/>
        </g>
       </g>
       <ellipse cx="63.465" cy="31.487" rx=".81947" ry="1.0123" fill="#fcb616" style="paint-order:normal"/>
       <ellipse cx="66.477" cy="39.187" rx="2.8888" ry="3.5685" fill="#f7f01b" style="paint-order:normal"/>
      </g>
      <path d="m60.267 35.232c3.7723 3.63 3.2441 9.7376 3.1461 13.717" fill="#f7a91b" stroke="#f3e679" stroke-width=".26458px"/>
      <ellipse cx="59.457" cy="33.335" rx="3.1183" ry="3.852" fill="#f7f01b" style="paint-order:normal"/>
      <path d="m66.184 41.355c-6.256 2.9098-4.5567 9.6945-4.1427 12.829" fill="#f7a91b" stroke="#f3e679" stroke-width=".26458px"/>
      <ellipse cx="66.16" cy="40.305" rx="2.1447" ry="2.6493" fill="#ffc813" style="paint-order:normal"/>
     </g>
     <path d="m65.816 42.694c-2.7071 3.1006-2.6028 7.3969-3.7751 11.49" fill="#f0ff69" fill-opacity=".97934"/>
     <g>
      <path d="m58.7 46.433c4.0614 1.9182 2.829 5.5756 3.3409 7.7508" fill="#f7a91b" stroke="#f3e679" stroke-width=".26458px"/>
      <g>
       <ellipse cx="58.162" cy="44.479" rx="2.9833" ry="3.2296" fill="#f7f01b" style="paint-order:normal"/>
       <ellipse cx="58.531" cy="45.582" rx="2.0537" ry="1.8647" fill="#ffc813" style="paint-order:normal"/>
       <g stroke="#faec72" stroke-linecap="round" stroke-linejoin="round">
        <ellipse cx="60.165" cy="34.823" rx="2.0839" ry="2.5742" fill="#ffc813" stroke-width=".02384" style="paint-order:normal"/>
        <g stroke-width=".011521">
         <ellipse cx="65.39" cy="33.888" rx="1.007" ry="1.244" fill="#ecb426" style="paint-order:normal"/>
         <ellipse cx="57.907" cy="39.233" rx="1.007" ry="1.244" fill="#fcb616" style="paint-order:normal"/>
         <ellipse cx="54.031" cy="41.572" rx="1.007" ry="1.244" fill="#f7881b" style="paint-order:normal"/>
         <ellipse cx="55.1" cy="37.095" rx="1.007" ry="1.244" fill="#ecb426" style="paint-order:normal"/>
         <ellipse cx="69.132" cy="34.422" rx="1.007" ry="1.244" fill="#fcb616" style="paint-order:normal"/>
        </g>
       </g>
       <ellipse cx="63.465" cy="31.487" rx=".81947" ry="1.0123" fill="#fcb616" style="paint-order:normal"/>
      </g>
     </g>
    </g>
    <g transform="rotate(215.77 82.903 78.364)">
     <g>
      <ellipse cx="66.477" cy="39.187" rx="2.8888" ry="3.5685" fill="#f7f01b" style="paint-order:normal"/>
      <path d="m60.267 35.232c3.7723 3.63 3.2441 9.7376 3.1461 13.717" fill="#f7a91b" stroke="#f3e679" stroke-width=".26458px"/>
      <ellipse cx="59.457" cy="33.335" rx="3.1183" ry="3.852" fill="#f7f01b" style="paint-order:normal"/>
      <path d="m66.184 41.355c-6.256 2.9098-4.5567 9.6945-4.1427 12.829" fill="#f7a91b" stroke="#f3e679" stroke-width=".26458px"/>
      <ellipse cx="66.16" cy="40.305" rx="2.1447" ry="2.6493" fill="#ffc813" style="paint-order:normal"/>
     </g>
     <path d="m65.816 42.694c-2.7071 3.1006-2.6028 7.3969-3.7751 11.49" fill="#f0ff69" fill-opacity=".97934"/>
     <g>
      <path d="m58.7 46.433c4.0614 1.9182 2.829 5.5756 3.3409 7.7508" fill="#f7a91b" stroke="#f3e679" stroke-width=".26458px"/>
      <g>
       <ellipse cx="58.162" cy="44.479" rx="2.9833" ry="3.2296" fill="#f7f01b" style="paint-order:normal"/>
       <ellipse cx="58.531" cy="45.582" rx="2.0537" ry="1.8647" fill="#ffc813" style="paint-order:normal"/>
       <g stroke="#faec72" stroke-linecap="round" stroke-linejoin="round">
        <ellipse cx="60.165" cy="34.823" rx="2.0839" ry="2.5742" fill="#ffc813" stroke-width=".02384" style="paint-order:normal"/>
        <g stroke-width=".011521">
         <ellipse cx="65.39" cy="33.888" rx="1.007" ry="1.244" fill="#ecb426" style="paint-order:normal"/>
         <ellipse cx="57.907" cy="39.233" rx="1.007" ry="1.244" fill="#fcb616" style="paint-order:normal"/>
         <ellipse cx="54.031" cy="41.572" rx="1.007" ry="1.244" fill="#f7881b" style="paint-order:normal"/>
         <ellipse cx="55.1" cy="37.095" rx="1.007" ry="1.244" fill="#ecb426" style="paint-order:normal"/>
         <ellipse cx="69.132" cy="34.422" rx="1.007" ry="1.244" fill="#fcb616" style="paint-order:normal"/>
        </g>
       </g>
       <ellipse cx="63.465" cy="31.487" rx=".81947" ry="1.0123" fill="#fcb616" style="paint-order:normal"/>
       <ellipse cx="66.477" cy="39.187" rx="2.8888" ry="3.5685" fill="#f7f01b" style="paint-order:normal"/>
      </g>
      <path d="m60.267 35.232c3.7723 3.63 3.2441 9.7376 3.1461 13.717" fill="#f7a91b" stroke="#f3e679" stroke-width=".26458px"/>
      <ellipse cx="59.457" cy="33.335" rx="3.1183" ry="3.852" fill="#f7f01b" style="paint-order:normal"/>
      <path d="m66.184 41.355c-6.256 2.9098-4.5567 9.6945-4.1427 12.829" fill="#f7a91b" stroke="#f3e679" stroke-width=".26458px"/>
      <ellipse cx="66.16" cy="40.305" rx="2.1447" ry="2.6493" fill="#ffc813" style="paint-order:normal"/>
     </g>
     <path d="m65.816 42.694c-2.7071 3.1006-2.6028 7.3969-3.7751 11.49" fill="#f0ff69" fill-opacity=".97934"/>
     <g>
      <path d="m58.7 46.433c4.0614 1.9182 2.829 5.5756 3.3409 7.7508" fill="#f7a91b" stroke="#f3e679" stroke-width=".26458px"/>
      <g>
       <ellipse cx="58.162" cy="44.479" rx="2.9833" ry="3.2296" fill="#f7f01b" style="paint-order:normal"/>
       <ellipse cx="58.531" cy="45.582" rx="2.0537" ry="1.8647" fill="#ffc813" style="paint-order:normal"/>
       <g stroke="#faec72" stroke-linecap="round" stroke-linejoin="round">
        <ellipse cx="60.165" cy="34.823" rx="2.0839" ry="2.5742" fill="#ffc813" stroke-width=".02384" style="paint-order:normal"/>
        <g stroke-width=".011521">
         <ellipse cx="65.39" cy="33.888" rx="1.007" ry="1.244" fill="#ecb426" style="paint-order:normal"/>
         <ellipse cx="57.907" cy="39.233" rx="1.007" ry="1.244" fill="#fcb616" style="paint-order:normal"/>
         <ellipse cx="54.031" cy="41.572" rx="1.007" ry="1.244" fill="#f7881b" style="paint-order:normal"/>
         <ellipse cx="55.1" cy="37.095" rx="1.007" ry="1.244" fill="#ecb426" style="paint-order:normal"/>
         <ellipse cx="69.132" cy="34.422" rx="1.007" ry="1.244" fill="#fcb616" style="paint-order:normal"/>
        </g>
       </g>
       <ellipse cx="63.465" cy="31.487" rx=".81947" ry="1.0123" fill="#fcb616" style="paint-order:normal"/>
      </g>
     </g>
    </g>
    <g transform="rotate(-75.53 110.01 66.914)">
     <g>
      <ellipse cx="66.477" cy="39.187" rx="2.8888" ry="3.5685" fill="#f7f01b" style="paint-order:normal"/>
      <path d="m60.267 35.232c3.7723 3.63 3.2441 9.7376 3.1461 13.717" fill="#f7a91b" stroke="#f3e679" stroke-width=".26458px"/>
      <ellipse cx="59.457" cy="33.335" rx="3.1183" ry="3.852" fill="#f7f01b" style="paint-order:normal"/>
      <path d="m66.184 41.355c-6.256 2.9098-4.5567 9.6945-4.1427 12.829" fill="#f7a91b" stroke="#f3e679" stroke-width=".26458px"/>
      <ellipse cx="66.16" cy="40.305" rx="2.1447" ry="2.6493" fill="#ffc813" style="paint-order:normal"/>
     </g>
     <path d="m65.816 42.694c-2.7071 3.1006-2.6028 7.3969-3.7751 11.49" fill="#f0ff69" fill-opacity=".97934"/>
     <g>
      <path d="m58.7 46.433c4.0614 1.9182 2.829 5.5756 3.3409 7.7508" fill="#f7a91b" stroke="#f3e679" stroke-width=".26458px"/>
      <g>
       <ellipse cx="58.162" cy="44.479" rx="2.9833" ry="3.2296" fill="#f7f01b" style="paint-order:normal"/>
       <ellipse cx="58.531" cy="45.582" rx="2.0537" ry="1.8647" fill="#ffc813" style="paint-order:normal"/>
       <g stroke="#faec72" stroke-linecap="round" stroke-linejoin="round">
        <ellipse cx="60.165" cy="34.823" rx="2.0839" ry="2.5742" fill="#ffc813" stroke-width=".02384" style="paint-order:normal"/>
        <g stroke-width=".011521">
         <ellipse cx="65.39" cy="33.888" rx="1.007" ry="1.244" fill="#ecb426" style="paint-order:normal"/>
         <ellipse cx="57.907" cy="39.233" rx="1.007" ry="1.244" fill="#fcb616" style="paint-order:normal"/>
         <ellipse cx="54.031" cy="41.572" rx="1.007" ry="1.244" fill="#f7881b" style="paint-order:normal"/>
         <ellipse cx="55.1" cy="37.095" rx="1.007" ry="1.244" fill="#ecb426" style="paint-order:normal"/>
         <ellipse cx="69.132" cy="34.422" rx="1.007" ry="1.244" fill="#fcb616" style="paint-order:normal"/>
        </g>
       </g>
       <ellipse cx="63.465" cy="31.487" rx=".81947" ry="1.0123" fill="#fcb616" style="paint-order:normal"/>
       <ellipse cx="66.477" cy="39.187" rx="2.8888" ry="3.5685" fill="#f7f01b" style="paint-order:normal"/>
      </g>
      <path d="m60.267 35.232c3.7723 3.63 3.2441 9.7376 3.1461 13.717" fill="#f7a91b" stroke="#f3e679" stroke-width=".26458px"/>
      <ellipse cx="59.457" cy="33.335" rx="3.1183" ry="3.852" fill="#f7f01b" style="paint-order:normal"/>
      <path d="m66.184 41.355c-6.256 2.9098-4.5567 9.6945-4.1427 12.829" fill="#f7a91b" stroke="#f3e679" stroke-width=".26458px"/>
      <ellipse cx="66.16" cy="40.305" rx="2.1447" ry="2.6493" fill="#ffc813" style="paint-order:normal"/>
     </g>
     <path d="m65.816 42.694c-2.7071 3.1006-2.6028 7.3969-3.7751 11.49" fill="#f0ff69" fill-opacity=".97934"/>
     <g>
      <path d="m58.7 46.433c4.0614 1.9182 2.829 5.5756 3.3409 7.7508" fill="#f7a91b" stroke="#f3e679" stroke-width=".26458px"/>
      <g>
       <ellipse cx="58.162" cy="44.479" rx="2.9833" ry="3.2296" fill="#f7f01b" style="paint-order:normal"/>
       <ellipse cx="58.531" cy="45.582" rx="2.0537" ry="1.8647" fill="#ffc813" style="paint-order:normal"/>
       <g stroke="#faec72" stroke-linecap="round" stroke-linejoin="round">
        <ellipse cx="60.165" cy="34.823" rx="2.0839" ry="2.5742" fill="#ffc813" stroke-width=".02384" style="paint-order:normal"/>
        <g stroke-width=".011521">
         <ellipse cx="65.39" cy="33.888" rx="1.007" ry="1.244" fill="#ecb426" style="paint-order:normal"/>
         <ellipse cx="57.907" cy="39.233" rx="1.007" ry="1.244" fill="#fcb616" style="paint-order:normal"/>
         <ellipse cx="54.031" cy="41.572" rx="1.007" ry="1.244" fill="#f7881b" style="paint-order:normal"/>
         <ellipse cx="55.1" cy="37.095" rx="1.007" ry="1.244" fill="#ecb426" style="paint-order:normal"/>
         <ellipse cx="69.132" cy="34.422" rx="1.007" ry="1.244" fill="#fcb616" style="paint-order:normal"/>
        </g>
       </g>
       <ellipse cx="63.465" cy="31.487" rx=".81947" ry="1.0123" fill="#fcb616" style="paint-order:normal"/>
      </g>
     </g>
    </g>
   </g>
  </g>
 </g>
</svg>
