<?xml version="1.0" encoding="UTF-8" standalone="no"?>
<!-- Created with Inkscape (http://www.inkscape.org/) -->

<svg
   xmlns:dc="http://purl.org/dc/elements/1.1/"
   xmlns:cc="http://creativecommons.org/ns#"
   xmlns:rdf="http://www.w3.org/1999/02/22-rdf-syntax-ns#"
   xmlns:svg="http://www.w3.org/2000/svg"
   xmlns="http://www.w3.org/2000/svg"
   xmlns:sodipodi="http://sodipodi.sourceforge.net/DTD/sodipodi-0.dtd"
   xmlns:inkscape="http://www.inkscape.org/namespaces/inkscape"
   width="210mm"
   height="297mm"
   viewBox="0 0 210 297"
   version="1.1"
   id="svg8"
   inkscape:version="0.92.1 r15371"
   sodipodi:docname="lapiz.svg">
  <defs
     id="defs2">
    <inkscape:perspective
       sodipodi:type="inkscape:persp3d"
       inkscape:vp_x="0 : 148.5 : 1"
       inkscape:vp_y="0 : 1000 : 0"
       inkscape:vp_z="210 : 148.5 : 1"
       inkscape:persp3d-origin="105 : 99 : 1"
       id="perspective4494" />
    <clipPath
       clipPathUnits="userSpaceOnUse"
       id="clipPath5101">
      <path
         id="path5103"
         style="opacity:0.63800001;fill:#4d2929;fill-opacity:1;fill-rule:nonzero;stroke:none;stroke-width:0.03713979;stroke-linecap:round;stroke-linejoin:round;stroke-miterlimit:4;stroke-dasharray:none;stroke-dashoffset:0;stroke-opacity:1;paint-order:normal"
         d="m 89.203636,125.05816 c -0.06804,0.0377 -0.146196,0.0727 -0.239972,0.10232 v -5.3e-4 c -0.014,0.004 -0.0028,0.001 -0.01593,0.005 l -2.597618,4.54807 5.662668,0.005 -2.563498,-4.50724 c -0.08288,-0.0361 -0.165819,-0.0934 -0.24566,-0.15296 z"
         inkscape:connector-curvature="0" />
    </clipPath>
  </defs>
  <sodipodi:namedview
     id="base"
     pagecolor="#ffffff"
     bordercolor="#666666"
     borderopacity="1.0"
     inkscape:pageopacity="0.0"
     inkscape:pageshadow="2"
     inkscape:zoom="0.24748737"
     inkscape:cx="-92.352166"
     inkscape:cy="437.42586"
     inkscape:document-units="mm"
     inkscape:current-layer="layer1"
     showgrid="false"
     inkscape:measure-start="0,0"
     inkscape:measure-end="0,0"
     inkscape:window-width="1366"
     inkscape:window-height="705"
     inkscape:window-x="-8"
     inkscape:window-y="-8"
     inkscape:window-maximized="1" />
  <metadata
     id="metadata5">
    <rdf:RDF>
      <cc:Work
         rdf:about="">
        <dc:format>image/svg+xml</dc:format>
        <dc:type
           rdf:resource="http://purl.org/dc/dcmitype/StillImage" />
        <dc:title></dc:title>
      </cc:Work>
    </rdf:RDF>
  </metadata>
  <g
     inkscape:label="Capa 1"
     inkscape:groupmode="layer"
     id="layer1">
    <rect
       y="126.48204"
       x="76.973618"
       height="49.712128"
       width="0"
       id="rect4489"
       style="fill:#7a7a7a;fill-opacity:1;fill-rule:evenodd;stroke-width:0.2518689" />
    <path
       style="opacity:1;fill:#ffffff;fill-opacity:1;fill-rule:evenodd;stroke:#7a7a7a;stroke-width:0.05941606;stroke-linecap:round;stroke-linejoin:round;stroke-miterlimit:4;stroke-dasharray:none;stroke-dashoffset:0;stroke-opacity:1;paint-order:normal"
       d=""
       id="path5068"
       inkscape:connector-curvature="0"
       transform="scale(0.26458333)" />
    <g
       id="g5145"
       transform="translate(1.6036171,-18.174328)">
      <path
         id="path5099"
         style="opacity:1;fill:#d8c492;fill-opacity:1;fill-rule:nonzero;stroke:none;stroke-width:0.16531549;stroke-linecap:round;stroke-linejoin:round;stroke-miterlimit:4;stroke-dasharray:none;stroke-dashoffset:0;stroke-opacity:1;paint-order:normal"
         d="m 88.883387,124.44813 c -0.06058,0.0393 -0.129933,0.076 -0.213374,0.10687 v -5.6e-4 c -0.0125,0.004 -0.0027,9.7e-4 -0.01428,0.005 L 78.345481,145.7064 c 0.01871,0.064 0.02966,0.13813 0.0307,0.22291 0.0025,0.18663 0.008,0.42592 -0.126011,0.57695 -0.05181,0.0584 -0.125029,0.0928 -0.183196,0.14464 -0.01564,0.0139 0.0341,-0.0268 0.05454,-0.0307 0.0085,-0.002 -0.0087,0.0152 -0.01323,0.0226 0.0595,-0.0518 0.02578,-0.014 -0.03388,0.0734 -0.02187,0.11681 -0.07309,0.17592 -0.142426,0.24341 2.7e-4,0.0112 -0.0154,0.0353 -0.0286,0.0573 0.0056,0.11356 5.42e-4,0.21807 -0.05772,0.33841 -0.01439,0.0297 -0.03195,0.0779 -0.05559,0.0961 -0.0082,0.0339 -0.01543,0.068 -0.02489,0.10141 -0.01014,0.076 -0.02956,0.1255 -0.08207,0.22074 -1.27e-4,0.002 -5.42e-4,0.009 -5.42e-4,0.009 -0.0011,0.0131 -0.0034,0.0261 -0.0042,0.0394 0.01824,0.0651 0.04617,0.15929 0.04712,0.21805 1.2e-5,8.3e-4 -7e-6,9.7e-4 0,0.002 l 22.238566,0.0237 c -0.14788,-0.16729 -0.15292,-0.3542 -0.0461,-0.46092 -0.003,-0.008 -0.007,-0.0122 -0.009,-0.0194 -0.0554,-0.13893 -0.10431,-0.23757 -0.12866,-0.38536 -0.009,-0.0566 -0.005,-0.115 -0.0101,-0.17217 -0.002,-0.0192 0.006,0.0397 0,0.0583 -0.003,0.009 -0.008,-0.0159 -0.01,-0.0244 -0.0107,-0.0413 -0.0192,-0.0832 -0.0286,-0.12468 -0.002,-0.0409 9.5e-4,-0.0825 -0.004,-0.12306 -0.0143,-0.10392 0.007,0.0968 -0.0117,0.0767 -0.0288,-0.0314 -0.0545,-0.0671 -0.073,-0.10578 -0.0436,-0.0908 -0.0601,-0.13516 -0.0657,-0.18134 -0.0714,-0.0974 -0.12484,-0.23928 -0.13131,-0.26339 -0.0143,-0.0535 -0.003,-0.11015 -0.002,-0.16569 -0.004,-0.004 -0.01,-0.0104 -0.0117,-0.0134 -0.0508,-0.0757 -0.0841,-0.16232 -0.12601,-0.24341 5.4e-4,-0.0539 0.004,-0.10758 0.002,-0.16137 -8.2e-4,0.0158 -0.003,0.0328 -0.0111,0.0297 -0.0207,-0.009 -0.0152,-0.0424 -0.0207,-0.0642 -0.0697,-0.27673 0.0337,0.0505 -0.0673,-0.17865 -0.0896,-0.0799 -0.0978,-0.2042 -0.0985,-0.32329 L 89.102648,124.6073 c -0.07378,-0.0376 -0.147582,-0.0977 -0.218668,-0.15975 z m 10.692525,21.96317 c -0.0775,0.0303 -0.0493,0.0893 5.5e-4,0.14572 -9.5e-4,-0.0378 -2.2e-4,-0.0715 -5.5e-4,-0.14572 z m -21.526946,0.34163 c -0.0072,0.0112 -0.0087,0.0117 -0.01641,0.0244 -0.0016,0.002 0.0065,-9.6e-4 0.008,-0.004 0.0025,-0.004 0.0056,-0.0135 0.0085,-0.0199 z"
         inkscape:connector-curvature="0" />
      <path
         transform="translate(-0.284854,-0.50865)"
         clip-path="url(#clipPath5101)"
         inkscape:connector-curvature="0"
         d="m 89.168245,124.95678 c -0.06058,0.0393 -0.129933,0.076 -0.213374,0.10687 v -5.6e-4 c -0.0125,0.004 -0.0027,9.7e-4 -0.01428,0.005 l -10.310252,21.14696 c 0.01871,0.064 0.02966,0.13813 0.0307,0.22291 0.0025,0.18663 0.008,0.42592 -0.126011,0.57695 -0.05181,0.0584 -0.125029,0.0928 -0.183196,0.14464 -0.01564,0.0139 0.0341,-0.0268 0.05454,-0.0307 0.0085,-0.002 -0.0087,0.0152 -0.01323,0.0226 0.0595,-0.0518 0.02578,-0.014 -0.03388,0.0734 -0.02187,0.11681 -0.07309,0.17592 -0.142426,0.24341 2.7e-4,0.0112 -0.0154,0.0353 -0.0286,0.0573 0.0056,0.11356 5.42e-4,0.21807 -0.05772,0.33841 -0.01439,0.0297 -0.03195,0.0779 -0.05559,0.0961 -0.0082,0.0339 -0.01543,0.068 -0.02489,0.10141 -0.01014,0.076 -0.02956,0.1255 -0.08207,0.22074 -1.27e-4,0.002 -5.42e-4,0.009 -5.42e-4,0.009 -0.0011,0.0131 -0.0034,0.0261 -0.0042,0.0394 0.01824,0.0651 0.04617,0.15929 0.04712,0.21805 1.2e-5,8.3e-4 -7e-6,9.7e-4 0,0.002 l 22.238556,0.0237 c -0.14787,-0.16729 -0.15291,-0.3542 -0.0461,-0.46092 -0.003,-0.008 -0.007,-0.0122 -0.009,-0.0194 -0.0554,-0.13893 -0.10431,-0.23757 -0.12866,-0.38536 -0.009,-0.0566 -0.005,-0.115 -0.0101,-0.17217 -0.002,-0.0192 0.006,0.0397 0,0.0583 -0.003,0.009 -0.008,-0.0159 -0.01,-0.0244 -0.0107,-0.0413 -0.0192,-0.0832 -0.0286,-0.12468 -0.002,-0.0409 9.5e-4,-0.0825 -0.004,-0.12306 -0.01432,-0.10392 0.007,0.0968 -0.0117,0.0767 -0.02884,-0.0314 -0.05446,-0.0671 -0.07305,-0.10578 -0.04364,-0.0908 -0.06006,-0.13516 -0.06566,-0.18134 -0.07135,-0.0974 -0.124843,-0.23928 -0.131314,-0.26339 -0.01433,-0.0535 -0.0028,-0.11015 -0.0019,-0.16569 -0.0038,-0.004 -0.0095,-0.0104 -0.01167,-0.0134 -0.05076,-0.0757 -0.08406,-0.16232 -0.12601,-0.24341 5.41e-4,-0.0539 0.0038,-0.10758 0.0019,-0.16137 -8.16e-4,0.0158 -0.0028,0.0328 -0.0111,0.0297 -0.02068,-0.009 -0.01518,-0.0424 -0.02068,-0.0642 -0.06974,-0.27673 0.03368,0.0505 -0.06727,-0.17865 -0.08957,-0.0799 -0.09777,-0.2042 -0.09848,-0.32329 L 89.387502,125.11595 c -0.07378,-0.0376 -0.147582,-0.0977 -0.218668,-0.15975 z m 10.69252,21.96317 c -0.07752,0.0303 -0.04934,0.0893 5.51e-4,0.14572 -9.49e-4,-0.0378 -2.18e-4,-0.0715 -5.51e-4,-0.14572 z m -21.526941,0.34163 c -0.0072,0.0112 -0.0087,0.0117 -0.01641,0.0244 -0.0016,0.002 0.0065,-9.6e-4 0.008,-0.004 0.0025,-0.004 0.0056,-0.0135 0.0085,-0.0199 z"
         style="opacity:0.63800001;fill:#1b1713;fill-opacity:1;fill-rule:nonzero;stroke:none;stroke-width:0.16531549;stroke-linecap:round;stroke-linejoin:round;stroke-miterlimit:4;stroke-dasharray:none;stroke-dashoffset:0;stroke-opacity:1;paint-order:normal"
         id="path4546" />
      <path
         inkscape:connector-curvature="0"
         d="m 78.009191,147.64662 c 0.0031,0.16578 -0.117073,0.29621 -0.283705,0.3954 -0.0016,0.004 -0.0019,0.007 -0.0036,0.0108 -0.04041,0.0963 -0.02843,0.0391 -0.03772,0.0975 -0.02074,0.088 -0.110866,0.1563 -0.148313,0.23939 -0.0051,0.0114 0.0034,0.0241 0,0.0358 -0.02098,0.0716 -0.06296,0.18146 -0.08992,0.25019 -0.0066,0.0254 -0.01093,0.051 -0.01963,0.076 -0.01357,0.039 -0.02674,0.0782 -0.04651,0.11579 0.239508,-0.0591 0.03592,0.0794 -0.08527,0.14818 -2.4e-5,3.8e-4 5.29e-4,3.8e-4 5.29e-4,7.6e-4 -0.0097,0.0404 -0.02609,0.0795 -0.04031,0.11914 -0.0033,0.0111 -0.0066,0.0223 -0.0098,0.0335 -0.04087,0.0418 -0.0628,0.0862 -0.08165,0.13105 5.29e-4,0.002 5.29e-4,-6e-5 0.0011,0.002 -0.02347,0.0996 -0.0222,0.10046 -0.02479,0.11691 0.0032,0.0628 -0.01053,0.12424 -0.03565,0.18392 1.8e-5,1.2e-4 -2.2e-5,1.9e-4 0,3.8e-4 0.01418,0.10559 0.0029,0.21175 0.0026,0.31758 0.0013,0.0962 0.0013,0.19233 0.0011,0.28854 0.0043,0.1581 0.0064,0.15583 -0.11679,0.31907 0.0056,-0.005 0.01066,-0.01 0.01603,-0.0145 0.04652,-0.0772 0.0079,9.6e-4 -0.03307,0.0745 v 32.87424 h 6.948781 v -35.81593 z"
         style="fill:#7a7a7a;fill-opacity:1;fill-rule:evenodd;stroke-width:0.22457892"
         id="rect4485" />
      <rect
         style="fill:#3a3a3a;fill-opacity:1;fill-rule:evenodd;stroke-width:0.29871786"
         id="rect4487"
         width="12.294401"
         height="35.815865"
         x="83.92263"
         y="147.64668" />
      <path
         inkscape:connector-curvature="0"
         d="m 94.405586,147.64218 v 35.81592 h 6.297294 v -33.84268 c -0.0653,-0.0431 -0.11464,-0.11299 -0.1354,-0.207 -0.0248,-0.03 -0.0446,-0.0656 -0.0584,-0.10723 -0.0745,-0.004 -0.10277,-0.0371 -0.0222,-0.13849 v -0.18616 -0.11802 c -0.0115,-0.008 -0.0274,-0.0241 -0.0403,-0.0361 -0.0842,-0.10448 -0.16333,-0.19965 -0.1788,-0.31981 -0.17088,-0.13481 -0.18368,-0.26768 -0.11162,-0.35408 -0.0287,-0.0312 -0.0489,-0.0684 -0.0641,-0.10312 -0.0171,-0.0145 -0.0208,-0.0291 -0.0212,-0.0596 -10e-4,-0.004 -0.004,-0.01 -0.005,-0.013 -0.002,-0.009 0.001,-0.0177 0.002,-0.0264 -5.3e-4,-0.0111 -0.003,-0.0313 -0.005,-0.0462 -0.0133,-0.0184 -0.0267,-0.0383 -0.0351,-0.0574 -0.005,-0.0104 -0.004,-0.0194 -0.007,-0.0294 -0.03082,-0.0113 -0.0617,-0.0226 -0.0925,-0.0339 -0.109408,-0.04 -0.186942,-0.0879 -0.242361,-0.13739 z"
         style="fill:#7a7a7a;fill-opacity:1;fill-rule:evenodd;stroke-width:0.2137869"
         id="rect4491" />
      <path
         d="m 304.73047,555.18359 c -0.18374,-0.0106 -0.36763,-0.009 -0.55469,0.01 -0.74715,-0.002 -1.49501,-0.008 -2.24219,-0.004 -0.73282,0.005 -1.46678,0.0112 -2.19726,0.0762 -0.71933,0.0741 -1.43039,0.25064 -2.14844,0.26954 v 0.002 l -2.82812,2.05469 c 0.0414,0.16076 0.0761,0.3206 0.0781,0.4414 0.003,0.16312 -0.0152,0.31818 -0.043,0.46875 0.24331,-0.0332 0.48698,-0.0674 0.73047,-0.0996 0.7168,-0.0884 1.44073,-0.1078 2.16211,-0.11914 0.75027,-0.008 1.49971,-0.01 2.25,-0.0117 0.72092,-0.0567 1.41827,0.0632 2.12305,0.18946 0.67894,0.11981 1.36893,0.14712 2.05664,0.16601 0.70655,0.0178 1.4138,-0.0217 2.11523,0.0762 0.71158,0.18256 1.42234,0.37914 2.125,0.59571 0.65425,0.14887 1.28338,0.38051 1.92969,0.55664 0.52408,0.19083 1.06683,0.33049 1.58789,0.5293 0.59225,0.231 1.19587,0.41876 1.80273,0.60546 0.29127,0.11566 0.5894,0.20636 0.89063,0.29102 l 4.33594,-2.99219 c -0.29369,-0.0612 -0.58659,-0.1259 -0.86328,-0.24609 -0.58247,-0.23112 -1.21276,-0.33624 -1.78516,-0.60156 -0.54246,-0.21094 -1.10002,-0.35066 -1.63672,-0.58008 -0.65531,-0.13421 -1.26502,-0.40923 -1.92578,-0.52149 -0.72136,-0.21996 -1.45004,-0.40295 -2.16211,-0.65429 -0.717,-0.13607 -1.42343,-0.17086 -2.1543,-0.14063 -0.66962,-0.009 -1.34108,-0.0182 -2.00586,-0.10742 -0.54851,-0.0848 -1.08939,-0.22203 -1.64062,-0.25391 z"
         style="opacity:1;fill:#7a7a7a;fill-opacity:1;fill-rule:evenodd;stroke:#7d7d7d;stroke-width:0.94110233;stroke-linecap:round;stroke-linejoin:round;stroke-miterlimit:4;stroke-dasharray:none;stroke-dashoffset:0;stroke-opacity:1;paint-order:normal"
         transform="scale(0.26458333)"
         id="path4830"
         inkscape:connector-curvature="0" />
      <path
         d="m 365.89648,554.95508 c -0.1427,-0.0106 -0.28636,-0.0105 -0.43164,0.008 -0.58026,-0.002 -1.15994,-0.008 -1.74023,-0.004 -0.56914,0.005 -1.13971,0.0112 -1.70703,0.0762 -0.55866,0.0741 -1.11031,0.25258 -1.66797,0.27148 l -3.32813,3.11133 c 0.58188,0.011 1.15062,-0.14821 1.72461,-0.24609 0.55669,-0.0884 1.11944,-0.10781 1.67969,-0.11915 0.58269,-0.008 1.16535,-0.01 1.74805,-0.0117 0.55989,-0.0567 1.10108,0.0632 1.64844,0.18945 0.52729,0.11981 1.06355,0.14712 1.59765,0.16601 0.54874,0.0178 1.09587,-0.0198 1.64063,0.0781 0.55264,0.18255 1.10663,0.37718 1.65234,0.59375 0.50811,0.14887 0.9961,0.38247 1.49805,0.55859 0.40702,0.19083 0.82775,0.32854 1.23242,0.52735 0.45996,0.231 0.92907,0.41876 1.40039,0.60547 0.22621,0.11565 0.45941,0.2083 0.69336,0.29296 l 3.31445,-2.94726 c -0.0259,-0.0295 -0.0606,-0.0581 -0.084,-0.0879 -0.18149,-0.052 -0.36157,-0.10907 -0.5332,-0.20508 -0.45237,-0.23112 -0.94412,-0.33624 -1.38868,-0.60156 -0.4213,-0.21094 -0.85271,-0.35066 -1.26953,-0.58008 -0.50893,-0.13421 -0.98292,-0.40728 -1.49609,-0.51953 -0.56024,-0.21997 -1.12667,-0.40491 -1.67969,-0.65625 -0.55685,-0.13606 -1.10621,-0.16891 -1.67383,-0.13867 -0.52005,-0.009 -1.04034,-0.0202 -1.55664,-0.10938 -0.42599,-0.0847 -0.84533,-0.22008 -1.27344,-0.25195 z"
         style="opacity:1;fill:#7a7a7a;fill-opacity:1;fill-rule:evenodd;stroke:#7d7d7d;stroke-width:0.82936573;stroke-linecap:round;stroke-linejoin:round;stroke-miterlimit:4;stroke-dasharray:none;stroke-dashoffset:0;stroke-opacity:1;paint-order:normal"
         transform="scale(0.26458333)"
         id="path4856"
         inkscape:connector-curvature="0" />
      <path
         inkscape:connector-curvature="0"
         d="m 84.23373,148.40767 c 0.443921,-0.49112 1.018808,-0.82809 1.610251,-1.07246 0.260133,-0.0942 0.531418,-0.11801 0.803289,-0.12963 0.28968,0.023 0.564226,-0.0585 0.844669,-0.11904 0.255886,-0.0556 0.517149,-0.0664 0.777194,-0.0758 0.202374,-0.006 0.404839,-0.006 0.607271,-0.006 0.179505,0.0115 0.352922,-0.004 0.529382,-0.0336 0.196386,-0.0342 0.394823,-0.0484 0.593362,-0.0563 0.195507,-0.006 0.391119,-0.003 0.586677,-0.004 0.20286,-2.7e-4 0.405707,0.001 0.608566,7.9e-4 0.186497,-5.3e-4 0.372994,-7.9e-4 0.559495,-0.001 0.174816,-1.5e-4 0.349633,-1.6e-4 0.524449,-1.6e-4 0.174191,0 0.348381,0 0.522572,0 0.169338,-0.0186 0.328317,0.0165 0.492487,0.053 0.146817,0.0555 0.268291,0.1519 0.37727,0.27026 0.111062,0.13929 0.224642,0.27891 0.311902,0.43743 0.07636,0.13006 0.147375,0.26164 0.225381,0.3908 0.01435,0.0183 0.02872,0.0367 0.04307,0.055 0,0 -1.103721,0.7185 -1.103721,0.7185 v 0 c -0.01643,-0.0224 -0.03283,-0.0449 -0.04923,-0.0672 -0.081,-0.13027 -0.152715,-0.26349 -0.227664,-0.39777 -0.08024,-0.14856 -0.186255,-0.28003 -0.29596,-0.40371 -0.09774,-0.0969 -0.204829,-0.17482 -0.336643,-0.20468 -0.157317,-0.0342 -0.314155,-0.0396 -0.474565,-0.0328 -0.174197,0 -0.348396,1e-5 -0.522593,1e-5 -0.174682,0 -0.349366,0 -0.524049,-1.7e-4 -0.185501,-2.1e-4 -0.371006,-5.2e-4 -0.556508,-0.001 -0.202942,-5.3e-4 -0.405877,2.5e-4 -0.608819,-2.6e-4 -0.195039,-7e-5 -0.390119,7.9e-4 -0.585011,0.01 -0.195787,0.0113 -0.390965,0.0313 -0.584446,0.0666 -0.180067,0.0272 -0.360926,0.0192 -0.54237,0.0184 -0.19913,-7.9e-4 -0.398308,-0.002 -0.597378,0.005 -0.255322,0.0107 -0.510622,0.0317 -0.760888,0.091 -0.282356,0.0639 -0.564388,0.10803 -0.85398,0.10178 -0.266572,0.0212 -0.533488,0.0571 -0.782304,0.17039 -0.469014,0.22731 -0.09579,0.0518 0.877458,-0.57456 0.03143,-0.0202 -0.06673,0.033 -0.09746,0.0545 -0.05966,0.0417 -0.09688,0.088 -0.145352,0.14251 -0.0166,0.0186 -0.03295,0.0376 -0.04943,0.0563 0,0 -1.196373,0.53829 -1.196373,0.53829 z"
         id="path4875"
         style="opacity:1;fill:#3a3a3a;fill-opacity:1;fill-rule:evenodd;stroke:#3a3a3a;stroke-width:0.23941536;stroke-linecap:round;stroke-linejoin:round;stroke-miterlimit:4;stroke-dasharray:none;stroke-dashoffset:0;stroke-opacity:1;paint-order:normal" />
      <path
         inkscape:connector-curvature="0"
         d="m 97.684867,147.03787 c 0.163494,-0.002 0.322474,0.004 0.477979,0.052 0.144063,0.0409 0.268694,0.12221 0.397294,0.19222 0.141342,0.094 0.28814,0.18088 0.432672,0.2709 0.153247,0.0847 0.309802,0.16372 0.459839,0.25309 0.13191,0.0586 0.233404,0.15621 0.325878,0.25701 0.07576,0.0984 0.151262,0.19396 0.214953,0.29943 0.05893,0.11606 0.140758,0.22074 0.215918,0.32838 0.0907,0.0917 0.1441,0.20407 0.2027,0.31332 0.0454,0.11639 0.0863,0.23389 0.13523,0.34928 0.0566,0.13115 0.0768,0.2702 0.0884,0.40952 0.009,0.13465 0.008,0.26959 0.008,0.40441 -2.8e-4,0.13366 -5.8e-4,0.26732 -8.7e-4,0.40098 -1.6e-4,0.13362 -1.7e-4,0.26724 -1.8e-4,0.40086 0,0.13363 0,0.26726 1e-5,0.4009 0,0.13363 0,0.26727 0,0.4009 0.001,0.0662 1.3e-4,0.13193 -0.004,0.19793 0,0 -0.978953,0.43539 -0.978953,0.43539 v 0 c 0.01544,-0.0625 0.01601,-0.12293 0.01322,-0.187 0,-0.13363 0,-0.26727 -3e-6,-0.4009 0,-0.13364 -6e-6,-0.26727 -6e-6,-0.40091 6e-6,-0.13365 6e-6,-0.2673 1.24e-4,-0.40095 1.46e-4,-0.13368 2.92e-4,-0.26735 8.78e-4,-0.40103 2.94e-4,-0.13286 0.0014,-0.26579 -0.0042,-0.39859 -0.0079,-0.12998 -0.02116,-0.26053 -0.07258,-0.3834 -0.04843,-0.11265 -0.09607,-0.22514 -0.134912,-0.34074 -0.05543,-0.10651 -0.105814,-0.21491 -0.192143,-0.30511 -0.0771,-0.10881 -0.162154,-0.21371 -0.220537,-0.33244 -0.06245,-0.0988 -0.13462,-0.18922 -0.205962,-0.28285 -0.08743,-0.0937 -0.183719,-0.17712 -0.305556,-0.23397 -0.150564,-0.0875 -0.302605,-0.17258 -0.454853,-0.25772 -0.145933,-0.0866 -0.291041,-0.17437 -0.436426,-0.26164 -0.123765,-0.0642 -0.238965,-0.14389 -0.38102,-0.17243 -0.154268,-0.0317 -0.310192,-0.0325 -0.467813,-0.0245 0,0 0.887869,-0.58238 0.887869,-0.58238 z"
         id="path4992"
         style="opacity:1;fill:#7a7a7a;fill-opacity:1;fill-rule:evenodd;stroke:#7a7a7a;stroke-width:0.26206097;stroke-linecap:round;stroke-linejoin:round;stroke-miterlimit:4;stroke-dasharray:none;stroke-dashoffset:0;stroke-opacity:1;paint-order:normal" />
      <path
         sodipodi:nodetypes="ccccccccccccccccccccccccccccccccc"
         inkscape:connector-curvature="0"
         d="m 86.435666,129.36986 c 0.348564,-0.37072 -0.261091,0.2861 -0.188988,0.17718 0.272992,-0.33539 0.645456,-0.75999 1.077769,-0.8089 0.135679,-0.0109 0.271921,-0.008 0.407879,-0.007 0.166783,0.002 0.33359,0.002 0.500386,10e-4 0.1398,-2.7e-4 0.279601,-5.3e-4 0.419401,-5.3e-4 0.151496,0.002 0.303001,7.9e-4 0.454499,5.3e-4 0.137888,-2.7e-4 0.275775,-5.3e-4 0.413663,-5.3e-4 0.133622,-5e-5 0.267247,-4e-5 0.400873,-4e-5 0.137488,-0.006 0.270433,1.6e-4 0.405273,0.0256 0.115096,0.0472 0.233418,0.084 0.351186,0.1235 0.126252,0.0253 0.227857,0.0969 0.329809,0.17019 0.09192,0.0781 0.111269,0.35657 0.206998,0.42929 v 0 l -0.210263,-0.17264 -0.268373,0.20553 c -0.03778,-0.26442 -0.25702,-0.10792 -0.27167,-0.11812 -0.09885,-0.0668 -0.195884,0.26007 -0.288652,0.18422 -0.09489,-0.0687 -0.198266,-0.11737 -0.312335,-0.14653 -0.113094,-0.0387 -0.214915,-0.006 -0.329371,-0.04 -0.131424,-0.0184 -0.275546,-0.0825 -0.407962,-0.0833 -0.133588,0 -0.267179,0 -0.400767,-4e-5 -0.08151,0.13976 -0.273717,0.003 -0.412319,-5.3e-4 -0.151945,-2.6e-4 -0.233027,0.11712 -0.455837,5.3e-4 -0.139132,-1.3e-4 -0.278263,0.11785 -0.417391,0.11712 -0.16664,-0.001 -0.333291,-0.12112 -0.499933,-0.11912 -0.133874,0.001 -0.269285,-2.6e-4 -0.401204,0.0254 -0.035,0.01 -0.133985,0.0557 -0.102671,0.0372 0.265051,-0.15704 0.532151,-0.31061 0.798227,-0.46591 -0.0489,0.0233 -0.08911,0.0468 -0.118124,0.0951 -0.08671,0.0797 -0.135286,0.36257 -0.145851,0.48071 l -0.431581,-0.1471 z"
         id="path5133"
         style="opacity:1;fill:#5f5641;fill-opacity:1;fill-rule:evenodd;stroke:#5f5641;stroke-width:0.249;stroke-linecap:round;stroke-linejoin:round;stroke-miterlimit:4;stroke-dasharray:none;stroke-dashoffset:0;stroke-opacity:1;paint-order:normal" />
    </g>
  </g>
</svg>
